<?xml version="1.0" encoding="utf-8" standalone="no"?>
<!DOCTYPE svg PUBLIC "-//W3C//DTD SVG 1.1//EN"
  "http://www.w3.org/Graphics/SVG/1.1/DTD/svg11.dtd">
<!-- Created with matplotlib (http://matplotlib.org/) -->
<svg height="360pt" version="1.1" viewBox="0 0 864 360" width="864pt" xmlns="http://www.w3.org/2000/svg" xmlns:xlink="http://www.w3.org/1999/xlink">
 <defs>
  <style type="text/css">
*{stroke-linecap:butt;stroke-linejoin:round;}
  </style>
 </defs>
 <g id="figure_1">
  <g id="patch_1">
   <path d="M 0 360 
L 864 360 
L 864 0 
L 0 0 
z
" style="fill:#ffffff;"/>
  </g>
  <g id="axes_1">
   <g id="patch_2">
    <path d="M 70.585 306.04 
L 425.52 306.04 
L 425.52 31.96 
L 70.585 31.96 
z
" style="fill:#eaeaf2;"/>
   </g>
   <g id="matplotlib.axis_1">
    <g id="xtick_1">
     <g id="line2d_1">
      <path clip-path="url(#pf08b9ea810)" d="M 86.718409 306.04 
L 86.718409 31.96 
" style="fill:none;stroke:#ffffff;stroke-linecap:round;"/>
     </g>
     <g id="line2d_2"/>
     <g id="text_1">
      <!-- 0 -->
      <defs>
       <path d="M 51.703125 34.421875 
Q 51.703125 24.515625 49.828125 17.75 
Q 47.953125 10.984375 44.703125 6.8125 
Q 41.453125 2.640625 37.0625 0.828125 
Q 32.671875 -0.984375 27.6875 -0.984375 
Q 22.65625 -0.984375 18.3125 0.828125 
Q 13.96875 2.640625 10.765625 6.78125 
Q 7.5625 10.9375 5.734375 17.703125 
Q 3.90625 24.46875 3.90625 34.421875 
Q 3.90625 44.828125 5.734375 51.640625 
Q 7.5625 58.453125 10.78125 62.5 
Q 14.015625 66.546875 18.40625 68.1875 
Q 22.796875 69.828125 27.984375 69.828125 
Q 32.90625 69.828125 37.21875 68.1875 
Q 41.546875 66.546875 44.765625 62.5 
Q 48 58.453125 49.84375 51.640625 
Q 51.703125 44.828125 51.703125 34.421875 
z
M 42.78125 34.421875 
Q 42.78125 42.625 41.796875 48.0625 
Q 40.828125 53.515625 38.921875 56.765625 
Q 37.015625 60.015625 34.25 61.359375 
Q 31.5 62.703125 27.984375 62.703125 
Q 24.265625 62.703125 21.4375 61.328125 
Q 18.609375 59.96875 16.671875 56.71875 
Q 14.75 53.46875 13.765625 48.015625 
Q 12.796875 42.578125 12.796875 34.421875 
Q 12.796875 26.515625 13.796875 21.09375 
Q 14.796875 15.671875 16.71875 12.375 
Q 18.65625 9.078125 21.4375 7.640625 
Q 24.21875 6.203125 27.78125 6.203125 
Q 31.25 6.203125 34.03125 7.640625 
Q 36.8125 9.078125 38.734375 12.375 
Q 40.671875 15.671875 41.71875 21.09375 
Q 42.78125 26.515625 42.78125 34.421875 
z
" id="LiberationSans-30"/>
      </defs>
      <g style="fill:#262626;" transform="translate(82.269659 324.635)scale(0.16 -0.16)">
       <use xlink:href="#LiberationSans-30"/>
      </g>
     </g>
    </g>
    <g id="xtick_2">
     <g id="line2d_3">
      <path clip-path="url(#pf08b9ea810)" d="M 151.252045 306.04 
L 151.252045 31.96 
" style="fill:none;stroke:#ffffff;stroke-linecap:round;"/>
     </g>
     <g id="line2d_4"/>
     <g id="text_2">
      <!-- 2 -->
      <defs>
       <path d="M 5.03125 0 
L 5.03125 6.203125 
Q 7.515625 11.921875 11.109375 16.28125 
Q 14.703125 20.65625 18.65625 24.1875 
Q 22.609375 27.734375 26.484375 30.765625 
Q 30.375 33.796875 33.5 36.8125 
Q 36.625 39.84375 38.546875 43.15625 
Q 40.484375 46.484375 40.484375 50.6875 
Q 40.484375 53.609375 39.59375 55.828125 
Q 38.71875 58.0625 37.0625 59.5625 
Q 35.40625 61.078125 33.078125 61.828125 
Q 30.765625 62.59375 27.9375 62.59375 
Q 25.296875 62.59375 22.96875 61.859375 
Q 20.65625 61.140625 18.84375 59.671875 
Q 17.046875 58.203125 15.890625 56.03125 
Q 14.75 53.859375 14.40625 50.984375 
L 5.421875 51.8125 
Q 5.859375 55.515625 7.46875 58.78125 
Q 9.078125 62.0625 11.90625 64.53125 
Q 14.75 67 18.71875 68.40625 
Q 22.703125 69.828125 27.9375 69.828125 
Q 33.0625 69.828125 37.0625 68.609375 
Q 41.0625 67.390625 43.8125 64.984375 
Q 46.578125 62.59375 48.046875 59.078125 
Q 49.515625 55.5625 49.515625 50.984375 
Q 49.515625 47.515625 48.265625 44.390625 
Q 47.015625 41.265625 44.9375 38.421875 
Q 42.875 35.59375 40.140625 32.953125 
Q 37.40625 30.328125 34.421875 27.8125 
Q 31.453125 25.296875 28.421875 22.828125 
Q 25.390625 20.359375 22.71875 17.859375 
Q 20.0625 15.375 17.96875 12.8125 
Q 15.875 10.25 14.703125 7.46875 
L 50.59375 7.46875 
L 50.59375 0 
z
" id="LiberationSans-32"/>
      </defs>
      <g style="fill:#262626;" transform="translate(146.803295 324.635)scale(0.16 -0.16)">
       <use xlink:href="#LiberationSans-32"/>
      </g>
     </g>
    </g>
    <g id="xtick_3">
     <g id="line2d_5">
      <path clip-path="url(#pf08b9ea810)" d="M 215.785682 306.04 
L 215.785682 31.96 
" style="fill:none;stroke:#ffffff;stroke-linecap:round;"/>
     </g>
     <g id="line2d_6"/>
     <g id="text_3">
      <!-- 4 -->
      <defs>
       <path d="M 43.015625 15.578125 
L 43.015625 0 
L 34.71875 0 
L 34.71875 15.578125 
L 2.296875 15.578125 
L 2.296875 22.40625 
L 33.796875 68.796875 
L 43.015625 68.796875 
L 43.015625 22.515625 
L 52.6875 22.515625 
L 52.6875 15.578125 
z
M 34.71875 58.890625 
Q 34.625 58.640625 34.234375 57.9375 
Q 33.84375 57.234375 33.34375 56.34375 
Q 32.859375 55.46875 32.34375 54.5625 
Q 31.84375 53.65625 31.453125 53.078125 
L 13.8125 27.09375 
Q 13.578125 26.703125 13.109375 26.0625 
Q 12.640625 25.4375 12.15625 24.78125 
Q 11.671875 24.125 11.171875 23.484375 
Q 10.6875 22.859375 10.40625 22.515625 
L 34.71875 22.515625 
z
" id="LiberationSans-34"/>
      </defs>
      <g style="fill:#262626;" transform="translate(211.336932 324.635)scale(0.16 -0.16)">
       <use xlink:href="#LiberationSans-34"/>
      </g>
     </g>
    </g>
    <g id="xtick_4">
     <g id="line2d_7">
      <path clip-path="url(#pf08b9ea810)" d="M 280.319318 306.04 
L 280.319318 31.96 
" style="fill:none;stroke:#ffffff;stroke-linecap:round;"/>
     </g>
     <g id="line2d_8"/>
     <g id="text_4">
      <!-- 6 -->
      <defs>
       <path d="M 51.21875 22.515625 
Q 51.21875 17.328125 49.78125 13 
Q 48.34375 8.6875 45.53125 5.578125 
Q 42.71875 2.484375 38.5625 0.75 
Q 34.421875 -0.984375 29 -0.984375 
Q 23 -0.984375 18.5 1.3125 
Q 14.015625 3.609375 11.03125 7.921875 
Q 8.0625 12.25 6.5625 18.53125 
Q 5.078125 24.8125 5.078125 32.8125 
Q 5.078125 42 6.765625 48.921875 
Q 8.453125 55.859375 11.625 60.5 
Q 14.796875 65.140625 19.359375 67.484375 
Q 23.921875 69.828125 29.6875 69.828125 
Q 33.203125 69.828125 36.28125 69.09375 
Q 39.359375 68.359375 41.875 66.71875 
Q 44.390625 65.09375 46.28125 62.40625 
Q 48.1875 59.71875 49.3125 55.8125 
L 40.921875 54.296875 
Q 39.546875 58.734375 36.546875 60.71875 
Q 33.546875 62.703125 29.59375 62.703125 
Q 25.984375 62.703125 23.046875 60.984375 
Q 20.125 59.28125 18.0625 55.875 
Q 16.015625 52.484375 14.90625 47.359375 
Q 13.8125 42.234375 13.8125 35.40625 
Q 16.21875 39.84375 20.5625 42.15625 
Q 24.90625 44.484375 30.515625 44.484375 
Q 35.203125 44.484375 39.015625 42.96875 
Q 42.828125 41.453125 45.53125 38.59375 
Q 48.25 35.75 49.734375 31.671875 
Q 51.21875 27.59375 51.21875 22.515625 
z
M 42.28125 22.125 
Q 42.28125 25.6875 41.40625 28.5625 
Q 40.53125 31.453125 38.765625 33.46875 
Q 37.015625 35.5 34.421875 36.59375 
Q 31.84375 37.703125 28.421875 37.703125 
Q 26.03125 37.703125 23.578125 36.984375 
Q 21.140625 36.28125 19.15625 34.6875 
Q 17.1875 33.109375 15.9375 30.515625 
Q 14.703125 27.9375 14.703125 24.21875 
Q 14.703125 20.40625 15.671875 17.109375 
Q 16.65625 13.8125 18.484375 11.375 
Q 20.3125 8.9375 22.890625 7.515625 
Q 25.484375 6.109375 28.71875 6.109375 
Q 31.890625 6.109375 34.40625 7.203125 
Q 36.921875 8.296875 38.671875 10.375 
Q 40.4375 12.453125 41.359375 15.421875 
Q 42.28125 18.40625 42.28125 22.125 
z
" id="LiberationSans-36"/>
      </defs>
      <g style="fill:#262626;" transform="translate(275.870568 324.635)scale(0.16 -0.16)">
       <use xlink:href="#LiberationSans-36"/>
      </g>
     </g>
    </g>
    <g id="xtick_5">
     <g id="line2d_9">
      <path clip-path="url(#pf08b9ea810)" d="M 344.852955 306.04 
L 344.852955 31.96 
" style="fill:none;stroke:#ffffff;stroke-linecap:round;"/>
     </g>
     <g id="line2d_10"/>
     <g id="text_5">
      <!-- 8 -->
      <defs>
       <path d="M 51.265625 19.1875 
Q 51.265625 14.796875 49.875 11.109375 
Q 48.484375 7.421875 45.625 4.734375 
Q 42.78125 2.046875 38.328125 0.53125 
Q 33.890625 -0.984375 27.828125 -0.984375 
Q 21.78125 -0.984375 17.359375 0.53125 
Q 12.9375 2.046875 10.03125 4.703125 
Q 7.125 7.375 5.734375 11.0625 
Q 4.34375 14.75 4.34375 19.09375 
Q 4.34375 22.859375 5.484375 25.78125 
Q 6.640625 28.71875 8.5625 30.828125 
Q 10.5 32.953125 12.96875 34.25 
Q 15.4375 35.546875 18.0625 35.984375 
L 18.0625 36.1875 
Q 15.1875 36.859375 12.90625 38.375 
Q 10.640625 39.890625 9.09375 42.015625 
Q 7.5625 44.140625 6.75 46.71875 
Q 5.953125 49.3125 5.953125 52.203125 
Q 5.953125 55.8125 7.34375 59 
Q 8.734375 62.203125 11.46875 64.625 
Q 14.203125 67.046875 18.25 68.4375 
Q 22.3125 69.828125 27.640625 69.828125 
Q 33.25 69.828125 37.375 68.40625 
Q 41.5 67 44.203125 64.578125 
Q 46.921875 62.15625 48.234375 58.9375 
Q 49.5625 55.71875 49.5625 52.09375 
Q 49.5625 49.265625 48.75 46.671875 
Q 47.953125 44.09375 46.40625 41.96875 
Q 44.875 39.84375 42.59375 38.34375 
Q 40.328125 36.859375 37.359375 36.28125 
L 37.359375 36.078125 
Q 40.328125 35.59375 42.859375 34.296875 
Q 45.40625 33.015625 47.265625 30.890625 
Q 49.125 28.765625 50.1875 25.828125 
Q 51.265625 22.90625 51.265625 19.1875 
z
M 40.4375 51.609375 
Q 40.4375 54.203125 39.765625 56.34375 
Q 39.109375 58.5 37.59375 60.03125 
Q 36.078125 61.578125 33.640625 62.421875 
Q 31.203125 63.28125 27.640625 63.28125 
Q 24.171875 63.28125 21.78125 62.421875 
Q 19.390625 61.578125 17.84375 60.03125 
Q 16.3125 58.5 15.625 56.34375 
Q 14.9375 54.203125 14.9375 51.609375 
Q 14.9375 49.5625 15.46875 47.40625 
Q 16.015625 45.265625 17.421875 43.5 
Q 18.84375 41.75 21.328125 40.625 
Q 23.828125 39.5 27.734375 39.5 
Q 31.890625 39.5 34.40625 40.625 
Q 36.921875 41.75 38.25 43.5 
Q 39.59375 45.265625 40.015625 47.40625 
Q 40.4375 49.5625 40.4375 51.609375 
z
M 42.140625 20.015625 
Q 42.140625 22.515625 41.453125 24.828125 
Q 40.765625 27.15625 39.109375 28.9375 
Q 37.453125 30.71875 34.640625 31.8125 
Q 31.84375 32.90625 27.640625 32.90625 
Q 23.78125 32.90625 21.0625 31.8125 
Q 18.359375 30.71875 16.671875 28.90625 
Q 14.984375 27.09375 14.203125 24.71875 
Q 13.421875 22.359375 13.421875 19.828125 
Q 13.421875 16.65625 14.203125 14.03125 
Q 14.984375 11.421875 16.6875 9.546875 
Q 18.40625 7.671875 21.1875 6.640625 
Q 23.96875 5.609375 27.9375 5.609375 
Q 31.9375 5.609375 34.671875 6.640625 
Q 37.40625 7.671875 39.0625 9.546875 
Q 40.71875 11.421875 41.421875 14.078125 
Q 42.140625 16.75 42.140625 20.015625 
z
" id="LiberationSans-38"/>
      </defs>
      <g style="fill:#262626;" transform="translate(340.404205 324.635)scale(0.16 -0.16)">
       <use xlink:href="#LiberationSans-38"/>
      </g>
     </g>
    </g>
    <g id="xtick_6">
     <g id="line2d_11">
      <path clip-path="url(#pf08b9ea810)" d="M 409.386591 306.04 
L 409.386591 31.96 
" style="fill:none;stroke:#ffffff;stroke-linecap:round;"/>
     </g>
     <g id="line2d_12"/>
     <g id="text_6">
      <!-- 10 -->
      <defs>
       <path d="M 7.625 0 
L 7.625 7.46875 
L 25.140625 7.46875 
L 25.140625 60.40625 
L 9.625 49.3125 
L 9.625 57.625 
L 25.875 68.796875 
L 33.984375 68.796875 
L 33.984375 7.46875 
L 50.734375 7.46875 
L 50.734375 0 
z
" id="LiberationSans-31"/>
      </defs>
      <g style="fill:#262626;" transform="translate(400.489091 324.635)scale(0.16 -0.16)">
       <use xlink:href="#LiberationSans-31"/>
       <use x="55.615234" xlink:href="#LiberationSans-30"/>
      </g>
     </g>
    </g>
    <g id="text_7">
     <!-- Iteration -->
     <defs>
      <path d="M 9.234375 0 
L 9.234375 68.796875 
L 18.5625 68.796875 
L 18.5625 0 
z
" id="LiberationSans-49"/>
      <path d="M 27.046875 0.390625 
Q 25.046875 -0.140625 22.96875 -0.453125 
Q 20.90625 -0.78125 18.171875 -0.78125 
Q 7.625 -0.78125 7.625 11.1875 
L 7.625 46.4375 
L 1.515625 46.4375 
L 1.515625 52.828125 
L 7.953125 52.828125 
L 10.546875 64.65625 
L 16.40625 64.65625 
L 16.40625 52.828125 
L 26.171875 52.828125 
L 26.171875 46.4375 
L 16.40625 46.4375 
L 16.40625 13.09375 
Q 16.40625 9.28125 17.640625 7.734375 
Q 18.890625 6.203125 21.96875 6.203125 
Q 23.25 6.203125 24.4375 6.390625 
Q 25.640625 6.59375 27.046875 6.890625 
z
" id="LiberationSans-74"/>
      <path d="M 13.484375 24.5625 
Q 13.484375 20.40625 14.328125 16.90625 
Q 15.1875 13.421875 16.96875 10.90625 
Q 18.75 8.40625 21.53125 7 
Q 24.3125 5.609375 28.21875 5.609375 
Q 33.9375 5.609375 37.375 7.90625 
Q 40.828125 10.203125 42.046875 13.71875 
L 49.75 11.53125 
Q 48.921875 9.328125 47.4375 7.109375 
Q 45.953125 4.890625 43.453125 3.09375 
Q 40.96875 1.3125 37.234375 0.15625 
Q 33.5 -0.984375 28.21875 -0.984375 
Q 16.5 -0.984375 10.375 6 
Q 4.25 12.984375 4.25 26.765625 
Q 4.25 34.1875 6.09375 39.328125 
Q 7.953125 44.484375 11.171875 47.703125 
Q 14.40625 50.921875 18.703125 52.359375 
Q 23 53.8125 27.875 53.8125 
Q 34.515625 53.8125 38.984375 51.65625 
Q 43.453125 49.515625 46.15625 45.71875 
Q 48.875 41.9375 50.015625 36.8125 
Q 51.171875 31.6875 51.171875 25.734375 
L 51.171875 24.5625 
z
M 42.09375 31.296875 
Q 41.359375 39.65625 37.84375 43.484375 
Q 34.328125 47.3125 27.734375 47.3125 
Q 25.53125 47.3125 23.109375 46.609375 
Q 20.703125 45.90625 18.65625 44.09375 
Q 16.609375 42.28125 15.1875 39.171875 
Q 13.765625 36.078125 13.578125 31.296875 
z
" id="LiberationSans-65"/>
      <path d="M 6.9375 0 
L 6.9375 40.53125 
Q 6.9375 42.1875 6.90625 43.921875 
Q 6.890625 45.65625 6.828125 47.265625 
Q 6.78125 48.875 6.734375 50.28125 
Q 6.6875 51.703125 6.640625 52.828125 
L 14.9375 52.828125 
Q 14.984375 51.703125 15.0625 50.265625 
Q 15.140625 48.828125 15.203125 47.3125 
Q 15.28125 45.796875 15.296875 44.40625 
Q 15.328125 43.015625 15.328125 42.046875 
L 15.53125 42.046875 
Q 16.453125 45.0625 17.5 47.28125 
Q 18.5625 49.515625 19.96875 50.953125 
Q 21.390625 52.390625 23.34375 53.09375 
Q 25.296875 53.8125 28.078125 53.8125 
Q 29.15625 53.8125 30.125 53.640625 
Q 31.109375 53.46875 31.640625 53.328125 
L 31.640625 45.265625 
Q 30.765625 45.515625 29.59375 45.625 
Q 28.421875 45.75 26.953125 45.75 
Q 23.921875 45.75 21.796875 44.375 
Q 19.671875 43.015625 18.328125 40.59375 
Q 17 38.1875 16.359375 34.84375 
Q 15.71875 31.5 15.71875 27.546875 
L 15.71875 0 
z
" id="LiberationSans-72"/>
      <path d="M 20.21875 -0.984375 
Q 12.25 -0.984375 8.25 3.21875 
Q 4.25 7.421875 4.25 14.75 
Q 4.25 19.96875 6.21875 23.3125 
Q 8.203125 26.65625 11.390625 28.5625 
Q 14.59375 30.46875 18.6875 31.203125 
Q 22.796875 31.9375 27.046875 32.03125 
L 38.921875 32.234375 
L 38.921875 35.109375 
Q 38.921875 38.375 38.234375 40.671875 
Q 37.546875 42.96875 36.125 44.375 
Q 34.71875 45.796875 32.59375 46.453125 
Q 30.46875 47.125 27.59375 47.125 
Q 25.046875 47.125 23 46.75 
Q 20.953125 46.390625 19.4375 45.4375 
Q 17.921875 44.484375 16.984375 42.84375 
Q 16.0625 41.21875 15.765625 38.71875 
L 6.59375 39.546875 
Q 7.078125 42.671875 8.4375 45.28125 
Q 9.8125 47.90625 12.328125 49.796875 
Q 14.84375 51.703125 18.625 52.75 
Q 22.40625 53.8125 27.78125 53.8125 
Q 37.75 53.8125 42.765625 49.234375 
Q 47.796875 44.671875 47.796875 36.03125 
L 47.796875 13.28125 
Q 47.796875 9.375 48.828125 7.390625 
Q 49.859375 5.421875 52.734375 5.421875 
Q 53.46875 5.421875 54.203125 5.515625 
Q 54.9375 5.609375 55.609375 5.765625 
L 55.609375 0.296875 
Q 53.953125 -0.09375 52.3125 -0.28125 
Q 50.6875 -0.484375 48.828125 -0.484375 
Q 46.34375 -0.484375 44.5625 0.171875 
Q 42.78125 0.828125 41.65625 2.171875 
Q 40.53125 3.515625 39.9375 5.484375 
Q 39.359375 7.46875 39.203125 10.109375 
L 38.921875 10.109375 
Q 37.5 7.5625 35.8125 5.515625 
Q 34.125 3.46875 31.875 2.03125 
Q 29.640625 0.59375 26.78125 -0.1875 
Q 23.921875 -0.984375 20.21875 -0.984375 
z
M 22.21875 5.609375 
Q 26.421875 5.609375 29.5625 7.140625 
Q 32.71875 8.6875 34.78125 11.078125 
Q 36.859375 13.484375 37.890625 16.3125 
Q 38.921875 19.140625 38.921875 21.734375 
L 38.921875 26.078125 
L 29.296875 25.875 
Q 26.078125 25.828125 23.171875 25.40625 
Q 20.265625 25 18.0625 23.78125 
Q 15.875 22.5625 14.578125 20.359375 
Q 13.28125 18.171875 13.28125 14.59375 
Q 13.28125 10.296875 15.59375 7.953125 
Q 17.921875 5.609375 22.21875 5.609375 
z
" id="LiberationSans-61"/>
      <path d="M 6.6875 64.0625 
L 6.6875 72.46875 
L 15.484375 72.46875 
L 15.484375 64.0625 
z
M 6.6875 0 
L 6.6875 52.828125 
L 15.484375 52.828125 
L 15.484375 0 
z
" id="LiberationSans-69"/>
      <path d="M 51.421875 26.46875 
Q 51.421875 12.59375 45.3125 5.796875 
Q 39.203125 -0.984375 27.59375 -0.984375 
Q 22.078125 -0.984375 17.71875 0.671875 
Q 13.375 2.34375 10.375 5.765625 
Q 7.375 9.1875 5.78125 14.328125 
Q 4.203125 19.484375 4.203125 26.46875 
Q 4.203125 53.8125 27.875 53.8125 
Q 34.03125 53.8125 38.5 52.09375 
Q 42.96875 50.390625 45.828125 46.96875 
Q 48.6875 43.5625 50.046875 38.421875 
Q 51.421875 33.296875 51.421875 26.46875 
z
M 42.1875 26.46875 
Q 42.1875 32.625 41.234375 36.625 
Q 40.28125 40.625 38.453125 43.015625 
Q 36.625 45.40625 33.984375 46.359375 
Q 31.34375 47.3125 28.03125 47.3125 
Q 24.65625 47.3125 21.9375 46.3125 
Q 19.234375 45.3125 17.328125 42.890625 
Q 15.4375 40.484375 14.421875 36.46875 
Q 13.421875 32.46875 13.421875 26.46875 
Q 13.421875 20.3125 14.5 16.28125 
Q 15.578125 12.25 17.453125 9.859375 
Q 19.34375 7.46875 21.90625 6.484375 
Q 24.46875 5.515625 27.484375 5.515625 
Q 30.859375 5.515625 33.59375 6.46875 
Q 36.328125 7.421875 38.234375 9.8125 
Q 40.140625 12.203125 41.15625 16.25 
Q 42.1875 20.3125 42.1875 26.46875 
z
" id="LiberationSans-6f"/>
      <path d="M 40.28125 0 
L 40.28125 33.5 
Q 40.28125 37.359375 39.71875 39.9375 
Q 39.15625 42.53125 37.890625 44.109375 
Q 36.625 45.703125 34.546875 46.359375 
Q 32.46875 47.015625 29.390625 47.015625 
Q 26.265625 47.015625 23.75 45.921875 
Q 21.234375 44.828125 19.453125 42.75 
Q 17.671875 40.671875 16.6875 37.625 
Q 15.71875 34.578125 15.71875 30.609375 
L 15.71875 0 
L 6.9375 0 
L 6.9375 41.546875 
Q 6.9375 43.21875 6.90625 45.046875 
Q 6.890625 46.875 6.828125 48.5 
Q 6.78125 50.140625 6.734375 51.3125 
Q 6.6875 52.484375 6.640625 52.828125 
L 14.9375 52.828125 
Q 14.984375 52.59375 15.03125 51.515625 
Q 15.09375 50.4375 15.15625 49.046875 
Q 15.234375 47.65625 15.28125 46.21875 
Q 15.328125 44.78125 15.328125 43.796875 
L 15.484375 43.796875 
Q 16.75 46.09375 18.265625 47.953125 
Q 19.78125 49.8125 21.78125 51.09375 
Q 23.78125 52.390625 26.359375 53.09375 
Q 28.953125 53.8125 32.375 53.8125 
Q 36.765625 53.8125 39.9375 52.734375 
Q 43.109375 51.65625 45.15625 49.40625 
Q 47.21875 47.171875 48.171875 43.625 
Q 49.125 40.09375 49.125 35.203125 
L 49.125 0 
z
" id="LiberationSans-6e"/>
     </defs>
     <g style="fill:#262626;" transform="translate(219.14875 343.55)scale(0.16 -0.16)">
      <use xlink:href="#LiberationSans-49"/>
      <use x="27.783203" xlink:href="#LiberationSans-74"/>
      <use x="55.566406" xlink:href="#LiberationSans-65"/>
      <use x="111.181641" xlink:href="#LiberationSans-72"/>
      <use x="144.482422" xlink:href="#LiberationSans-61"/>
      <use x="200.097656" xlink:href="#LiberationSans-74"/>
      <use x="227.880859" xlink:href="#LiberationSans-69"/>
      <use x="250.097656" xlink:href="#LiberationSans-6f"/>
      <use x="305.712891" xlink:href="#LiberationSans-6e"/>
     </g>
    </g>
   </g>
   <g id="matplotlib.axis_2">
    <g id="ytick_1">
     <g id="line2d_13">
      <path clip-path="url(#pf08b9ea810)" d="M 70.585 293.581818 
L 425.52 293.581818 
" style="fill:none;stroke:#ffffff;stroke-linecap:round;"/>
     </g>
     <g id="line2d_14"/>
     <g id="text_8">
      <!-- −1.0 -->
      <defs>
       <path d="M 4.9375 29.6875 
L 4.9375 36.8125 
L 53.515625 36.8125 
L 53.515625 29.6875 
z
" id="LiberationSans-2212"/>
       <path d="M 9.125 0 
L 9.125 10.6875 
L 18.65625 10.6875 
L 18.65625 0 
z
" id="LiberationSans-2e"/>
      </defs>
      <g style="fill:#262626;" transform="translate(32 299.379318)scale(0.16 -0.16)">
       <use xlink:href="#LiberationSans-2212"/>
       <use x="58.398438" xlink:href="#LiberationSans-31"/>
       <use x="114.013672" xlink:href="#LiberationSans-2e"/>
       <use x="141.796875" xlink:href="#LiberationSans-30"/>
      </g>
     </g>
    </g>
    <g id="ytick_2">
     <g id="line2d_15">
      <path clip-path="url(#pf08b9ea810)" d="M 70.585 231.290909 
L 425.52 231.290909 
" style="fill:none;stroke:#ffffff;stroke-linecap:round;"/>
     </g>
     <g id="line2d_16"/>
     <g id="text_9">
      <!-- −0.5 -->
      <defs>
       <path d="M 51.421875 22.40625 
Q 51.421875 17.234375 49.859375 12.9375 
Q 48.296875 8.640625 45.21875 5.53125 
Q 42.140625 2.4375 37.578125 0.71875 
Q 33.015625 -0.984375 27 -0.984375 
Q 21.578125 -0.984375 17.546875 0.28125 
Q 13.53125 1.5625 10.734375 3.78125 
Q 7.953125 6 6.3125 8.984375 
Q 4.6875 11.96875 4 15.375 
L 12.890625 16.40625 
Q 13.421875 14.453125 14.390625 12.625 
Q 15.375 10.796875 17.0625 9.34375 
Q 18.75 7.90625 21.21875 7.046875 
Q 23.6875 6.203125 27.203125 6.203125 
Q 30.609375 6.203125 33.390625 7.25 
Q 36.1875 8.296875 38.15625 10.34375 
Q 40.140625 12.40625 41.203125 15.375 
Q 42.28125 18.359375 42.28125 22.21875 
Q 42.28125 25.390625 41.25 28.046875 
Q 40.234375 30.71875 38.328125 32.640625 
Q 36.421875 34.578125 33.65625 35.640625 
Q 30.90625 36.71875 27.390625 36.71875 
Q 25.203125 36.71875 23.34375 36.328125 
Q 21.484375 35.9375 19.890625 35.25 
Q 18.3125 34.578125 17.015625 33.671875 
Q 15.71875 32.765625 14.59375 31.78125 
L 6 31.78125 
L 8.296875 68.796875 
L 47.40625 68.796875 
L 47.40625 61.328125 
L 16.3125 61.328125 
L 14.984375 39.5 
Q 17.328125 41.3125 20.84375 42.59375 
Q 24.359375 43.890625 29.203125 43.890625 
Q 34.328125 43.890625 38.421875 42.328125 
Q 42.53125 40.765625 45.40625 37.90625 
Q 48.296875 35.0625 49.859375 31.109375 
Q 51.421875 27.15625 51.421875 22.40625 
z
" id="LiberationSans-35"/>
      </defs>
      <g style="fill:#262626;" transform="translate(32 237.088409)scale(0.16 -0.16)">
       <use xlink:href="#LiberationSans-2212"/>
       <use x="58.398438" xlink:href="#LiberationSans-30"/>
       <use x="114.013672" xlink:href="#LiberationSans-2e"/>
       <use x="141.796875" xlink:href="#LiberationSans-35"/>
      </g>
     </g>
    </g>
    <g id="ytick_3">
     <g id="line2d_17">
      <path clip-path="url(#pf08b9ea810)" d="M 70.585 169 
L 425.52 169 
" style="fill:none;stroke:#ffffff;stroke-linecap:round;"/>
     </g>
     <g id="line2d_18"/>
     <g id="text_10">
      <!-- 0.0 -->
      <g style="fill:#262626;" transform="translate(41.345 174.7975)scale(0.16 -0.16)">
       <use xlink:href="#LiberationSans-30"/>
       <use x="55.615234" xlink:href="#LiberationSans-2e"/>
       <use x="83.398438" xlink:href="#LiberationSans-30"/>
      </g>
     </g>
    </g>
    <g id="ytick_4">
     <g id="line2d_19">
      <path clip-path="url(#pf08b9ea810)" d="M 70.585 106.709091 
L 425.52 106.709091 
" style="fill:none;stroke:#ffffff;stroke-linecap:round;"/>
     </g>
     <g id="line2d_20"/>
     <g id="text_11">
      <!-- 0.5 -->
      <g style="fill:#262626;" transform="translate(41.345 112.506591)scale(0.16 -0.16)">
       <use xlink:href="#LiberationSans-30"/>
       <use x="55.615234" xlink:href="#LiberationSans-2e"/>
       <use x="83.398438" xlink:href="#LiberationSans-35"/>
      </g>
     </g>
    </g>
    <g id="ytick_5">
     <g id="line2d_21">
      <path clip-path="url(#pf08b9ea810)" d="M 70.585 44.418182 
L 425.52 44.418182 
" style="fill:none;stroke:#ffffff;stroke-linecap:round;"/>
     </g>
     <g id="line2d_22"/>
     <g id="text_12">
      <!-- 1.0 -->
      <g style="fill:#262626;" transform="translate(41.345 50.215682)scale(0.16 -0.16)">
       <use xlink:href="#LiberationSans-31"/>
       <use x="55.615234" xlink:href="#LiberationSans-2e"/>
       <use x="83.398438" xlink:href="#LiberationSans-30"/>
      </g>
     </g>
    </g>
    <g id="text_13">
     <!-- Average State -->
     <defs>
      <path d="M 56.984375 0 
L 49.125 20.125 
L 17.78125 20.125 
L 9.859375 0 
L 0.203125 0 
L 28.265625 68.796875 
L 38.875 68.796875 
L 66.5 0 
z
M 37.5 50.09375 
Q 36.71875 52.046875 36 54.046875 
Q 35.296875 56.0625 34.765625 57.6875 
Q 34.234375 59.328125 33.859375 60.421875 
Q 33.5 61.53125 33.453125 61.765625 
Q 33.34375 61.53125 33 60.40625 
Q 32.671875 59.28125 32.109375 57.609375 
Q 31.546875 55.953125 30.828125 53.953125 
Q 30.125 51.953125 29.390625 50 
L 20.609375 27.390625 
L 46.34375 27.390625 
z
" id="LiberationSans-41"/>
      <path d="M 29.9375 0 
L 19.53125 0 
L 0.34375 52.828125 
L 9.71875 52.828125 
L 21.34375 18.453125 
Q 21.6875 17.390625 22.140625 15.84375 
Q 22.609375 14.3125 23.09375 12.640625 
Q 23.578125 10.984375 24 9.4375 
Q 24.421875 7.90625 24.703125 6.890625 
Q 25 7.90625 25.453125 9.4375 
Q 25.921875 10.984375 26.40625 12.59375 
Q 26.90625 14.203125 27.421875 15.734375 
Q 27.9375 17.28125 28.328125 18.359375 
L 40.328125 52.828125 
L 49.65625 52.828125 
z
" id="LiberationSans-76"/>
      <path d="M 26.765625 -20.75 
Q 22.21875 -20.75 18.703125 -19.8125 
Q 15.1875 -18.890625 12.6875 -17.15625 
Q 10.203125 -15.4375 8.640625 -13.03125 
Q 7.078125 -10.640625 6.390625 -7.71875 
L 15.234375 -6.453125 
Q 16.109375 -10.109375 19.109375 -12.078125 
Q 22.125 -14.0625 27 -14.0625 
Q 29.984375 -14.0625 32.421875 -13.234375 
Q 34.859375 -12.40625 36.5625 -10.5625 
Q 38.28125 -8.734375 39.203125 -5.796875 
Q 40.140625 -2.875 40.140625 1.3125 
L 40.140625 9.8125 
L 40.046875 9.8125 
Q 39.0625 7.8125 37.625 5.984375 
Q 36.1875 4.15625 34.109375 2.734375 
Q 32.03125 1.3125 29.296875 0.453125 
Q 26.5625 -0.390625 23.046875 -0.390625 
Q 18.015625 -0.390625 14.421875 1.296875 
Q 10.84375 2.984375 8.5625 6.34375 
Q 6.296875 9.71875 5.25 14.71875 
Q 4.203125 19.734375 4.203125 26.3125 
Q 4.203125 32.671875 5.25 37.75 
Q 6.296875 42.828125 8.65625 46.359375 
Q 11.03125 49.90625 14.8125 51.78125 
Q 18.609375 53.65625 24.03125 53.65625 
Q 29.640625 53.65625 33.765625 51.09375 
Q 37.890625 48.53125 40.140625 43.796875 
L 40.234375 43.796875 
Q 40.234375 45.015625 40.296875 46.53125 
Q 40.375 48.046875 40.453125 49.390625 
Q 40.53125 50.734375 40.625 51.703125 
Q 40.71875 52.6875 40.828125 52.828125 
L 49.171875 52.828125 
Q 49.125 52.390625 49.078125 51.34375 
Q 49.03125 50.296875 48.96875 48.828125 
Q 48.921875 47.359375 48.890625 45.578125 
Q 48.875 43.796875 48.875 41.890625 
L 48.875 1.515625 
Q 48.875 -9.578125 43.421875 -15.15625 
Q 37.984375 -20.75 26.765625 -20.75 
z
M 40.140625 26.421875 
Q 40.140625 31.9375 38.9375 35.859375 
Q 37.75 39.796875 35.796875 42.28125 
Q 33.84375 44.78125 31.328125 45.953125 
Q 28.8125 47.125 26.171875 47.125 
Q 22.796875 47.125 20.375 45.953125 
Q 17.96875 44.78125 16.375 42.265625 
Q 14.796875 39.75 14.03125 35.8125 
Q 13.28125 31.890625 13.28125 26.421875 
Q 13.28125 20.703125 14.03125 16.8125 
Q 14.796875 12.9375 16.359375 10.546875 
Q 17.921875 8.15625 20.3125 7.125 
Q 22.703125 6.109375 26.03125 6.109375 
Q 28.65625 6.109375 31.171875 7.21875 
Q 33.6875 8.34375 35.6875 10.78125 
Q 37.703125 13.234375 38.921875 17.09375 
Q 40.140625 20.953125 40.140625 26.421875 
z
" id="LiberationSans-67"/>
      <path id="LiberationSans-20"/>
      <path d="M 62.109375 19 
Q 62.109375 14.65625 60.421875 10.984375 
Q 58.734375 7.328125 55.21875 4.65625 
Q 51.703125 2 46.359375 0.5 
Q 41.015625 -0.984375 33.6875 -0.984375 
Q 20.84375 -0.984375 13.671875 3.515625 
Q 6.5 8.015625 4.546875 16.5 
L 13.578125 18.3125 
Q 14.265625 15.625 15.671875 13.421875 
Q 17.09375 11.234375 19.5 9.640625 
Q 21.921875 8.0625 25.484375 7.171875 
Q 29.046875 6.296875 34.03125 6.296875 
Q 38.1875 6.296875 41.65625 7 
Q 45.125 7.71875 47.609375 9.171875 
Q 50.09375 10.640625 51.484375 12.953125 
Q 52.875 15.28125 52.875 18.5 
Q 52.875 21.875 51.34375 23.96875 
Q 49.8125 26.078125 47.015625 27.4375 
Q 44.234375 28.8125 40.375 29.734375 
Q 36.53125 30.671875 31.84375 31.734375 
Q 28.953125 32.375 26.046875 33.125 
Q 23.140625 33.890625 20.484375 34.9375 
Q 17.828125 35.984375 15.484375 37.390625 
Q 13.140625 38.8125 11.421875 40.796875 
Q 9.71875 42.78125 8.734375 45.390625 
Q 7.765625 48 7.765625 51.421875 
Q 7.765625 56.296875 9.734375 59.78125 
Q 11.71875 63.28125 15.234375 65.53125 
Q 18.75 67.78125 23.53125 68.796875 
Q 28.328125 69.828125 33.890625 69.828125 
Q 40.28125 69.828125 44.8125 68.828125 
Q 49.359375 67.828125 52.484375 65.8125 
Q 55.609375 63.8125 57.484375 60.859375 
Q 59.375 57.90625 60.5 54 
L 51.3125 52.390625 
Q 50.640625 54.890625 49.34375 56.84375 
Q 48.046875 58.796875 45.9375 60.109375 
Q 43.84375 61.421875 40.84375 62.109375 
Q 37.84375 62.796875 33.796875 62.796875 
Q 29 62.796875 25.75 61.9375 
Q 22.515625 61.078125 20.53125 59.609375 
Q 18.5625 58.15625 17.703125 56.171875 
Q 16.84375 54.203125 16.84375 51.90625 
Q 16.84375 48.828125 18.375 46.84375 
Q 19.921875 44.875 22.5625 43.546875 
Q 25.203125 42.234375 28.65625 41.359375 
Q 32.125 40.484375 36.03125 39.59375 
Q 39.203125 38.875 42.359375 38.109375 
Q 45.515625 37.359375 48.390625 36.296875 
Q 51.265625 35.25 53.78125 33.828125 
Q 56.296875 32.421875 58.15625 30.375 
Q 60.015625 28.328125 61.0625 25.53125 
Q 62.109375 22.75 62.109375 19 
z
" id="LiberationSans-53"/>
     </defs>
     <g style="fill:#262626;" transform="translate(24.68 219.695)rotate(-90)scale(0.16 -0.16)">
      <use xlink:href="#LiberationSans-41"/>
      <use x="66.683594" xlink:href="#LiberationSans-76"/>
      <use x="116.683594" xlink:href="#LiberationSans-65"/>
      <use x="172.298828" xlink:href="#LiberationSans-72"/>
      <use x="205.599609" xlink:href="#LiberationSans-61"/>
      <use x="261.214844" xlink:href="#LiberationSans-67"/>
      <use x="316.830078" xlink:href="#LiberationSans-65"/>
      <use x="372.445312" xlink:href="#LiberationSans-20"/>
      <use x="400.228516" xlink:href="#LiberationSans-53"/>
      <use x="466.927734" xlink:href="#LiberationSans-74"/>
      <use x="494.710938" xlink:href="#LiberationSans-61"/>
      <use x="550.326172" xlink:href="#LiberationSans-74"/>
      <use x="578.109375" xlink:href="#LiberationSans-65"/>
     </g>
    </g>
   </g>
   <g id="line2d_23">
    <path clip-path="url(#pf08b9ea810)" d="M 86.718409 268.665455 
L 118.985227 293.510059 
L 151.252045 293.581818 
L 183.518864 293.581818 
L 215.785682 293.581818 
L 248.0525 293.581818 
L 280.319318 293.581818 
L 312.586136 293.581818 
L 344.852955 293.581818 
L 377.119773 293.581818 
L 409.386591 293.581818 
" style="fill:none;stroke:#4c72b0;stroke-linecap:round;stroke-width:2;"/>
    <defs>
     <path d="M 0 1.75 
C 0.464105 1.75 0.909265 1.565609 1.237437 1.237437 
C 1.565609 0.909265 1.75 0.464105 1.75 0 
C 1.75 -0.464105 1.565609 -0.909265 1.237437 -1.237437 
C 0.909265 -1.565609 0.464105 -1.75 0 -1.75 
C -0.464105 -1.75 -0.909265 -1.565609 -1.237437 -1.237437 
C -1.565609 -0.909265 -1.75 -0.464105 -1.75 0 
C -1.75 0.464105 -1.565609 0.909265 -1.237437 1.237437 
C -0.909265 1.565609 -0.464105 1.75 0 1.75 
z
" id="mf2db09fdf8"/>
    </defs>
    <g clip-path="url(#pf08b9ea810)">
     <use style="fill:#4c72b0;" x="86.718409" xlink:href="#mf2db09fdf8" y="268.665455"/>
     <use style="fill:#4c72b0;" x="118.985227" xlink:href="#mf2db09fdf8" y="293.510059"/>
     <use style="fill:#4c72b0;" x="151.252045" xlink:href="#mf2db09fdf8" y="293.581818"/>
     <use style="fill:#4c72b0;" x="183.518864" xlink:href="#mf2db09fdf8" y="293.581818"/>
     <use style="fill:#4c72b0;" x="215.785682" xlink:href="#mf2db09fdf8" y="293.581818"/>
     <use style="fill:#4c72b0;" x="248.0525" xlink:href="#mf2db09fdf8" y="293.581818"/>
     <use style="fill:#4c72b0;" x="280.319318" xlink:href="#mf2db09fdf8" y="293.581818"/>
     <use style="fill:#4c72b0;" x="312.586136" xlink:href="#mf2db09fdf8" y="293.581818"/>
     <use style="fill:#4c72b0;" x="344.852955" xlink:href="#mf2db09fdf8" y="293.581818"/>
     <use style="fill:#4c72b0;" x="377.119773" xlink:href="#mf2db09fdf8" y="293.581818"/>
     <use style="fill:#4c72b0;" x="409.386591" xlink:href="#mf2db09fdf8" y="293.581818"/>
    </g>
   </g>
   <g id="line2d_24">
    <path clip-path="url(#pf08b9ea810)" d="M 86.718409 243.749091 
L 118.985227 290.677069 
L 151.252045 293.581818 
L 183.518864 293.581818 
L 215.785682 293.581818 
L 248.0525 293.581818 
L 280.319318 293.581818 
L 312.586136 293.581818 
L 344.852955 293.581818 
L 377.119773 293.581818 
L 409.386591 293.581818 
" style="fill:none;stroke:#55a868;stroke-linecap:round;stroke-width:2;"/>
    <defs>
     <path d="M 0 1.75 
C 0.464105 1.75 0.909265 1.565609 1.237437 1.237437 
C 1.565609 0.909265 1.75 0.464105 1.75 0 
C 1.75 -0.464105 1.565609 -0.909265 1.237437 -1.237437 
C 0.909265 -1.565609 0.464105 -1.75 0 -1.75 
C -0.464105 -1.75 -0.909265 -1.565609 -1.237437 -1.237437 
C -1.565609 -0.909265 -1.75 -0.464105 -1.75 0 
C -1.75 0.464105 -1.565609 0.909265 -1.237437 1.237437 
C -0.909265 1.565609 -0.464105 1.75 0 1.75 
z
" id="m1a60d6c462"/>
    </defs>
    <g clip-path="url(#pf08b9ea810)">
     <use style="fill:#55a868;" x="86.718409" xlink:href="#m1a60d6c462" y="243.749091"/>
     <use style="fill:#55a868;" x="118.985227" xlink:href="#m1a60d6c462" y="290.677069"/>
     <use style="fill:#55a868;" x="151.252045" xlink:href="#m1a60d6c462" y="293.581818"/>
     <use style="fill:#55a868;" x="183.518864" xlink:href="#m1a60d6c462" y="293.581818"/>
     <use style="fill:#55a868;" x="215.785682" xlink:href="#m1a60d6c462" y="293.581818"/>
     <use style="fill:#55a868;" x="248.0525" xlink:href="#m1a60d6c462" y="293.581818"/>
     <use style="fill:#55a868;" x="280.319318" xlink:href="#m1a60d6c462" y="293.581818"/>
     <use style="fill:#55a868;" x="312.586136" xlink:href="#m1a60d6c462" y="293.581818"/>
     <use style="fill:#55a868;" x="344.852955" xlink:href="#m1a60d6c462" y="293.581818"/>
     <use style="fill:#55a868;" x="377.119773" xlink:href="#m1a60d6c462" y="293.581818"/>
     <use style="fill:#55a868;" x="409.386591" xlink:href="#m1a60d6c462" y="293.581818"/>
    </g>
   </g>
   <g id="line2d_25">
    <path clip-path="url(#pf08b9ea810)" d="M 86.718409 218.832727 
L 118.985227 274.083019 
L 151.252045 293.543696 
L 183.518864 293.581818 
L 215.785682 293.581818 
L 248.0525 293.581818 
L 280.319318 293.581818 
L 312.586136 293.581818 
L 344.852955 293.581818 
L 377.119773 293.581818 
L 409.386591 293.581818 
" style="fill:none;stroke:#c44e52;stroke-linecap:round;stroke-width:2;"/>
    <defs>
     <path d="M 0 1.75 
C 0.464105 1.75 0.909265 1.565609 1.237437 1.237437 
C 1.565609 0.909265 1.75 0.464105 1.75 0 
C 1.75 -0.464105 1.565609 -0.909265 1.237437 -1.237437 
C 0.909265 -1.565609 0.464105 -1.75 0 -1.75 
C -0.464105 -1.75 -0.909265 -1.565609 -1.237437 -1.237437 
C -1.565609 -0.909265 -1.75 -0.464105 -1.75 0 
C -1.75 0.464105 -1.565609 0.909265 -1.237437 1.237437 
C -0.909265 1.565609 -0.464105 1.75 0 1.75 
z
" id="m3ccd23bcb4"/>
    </defs>
    <g clip-path="url(#pf08b9ea810)">
     <use style="fill:#c44e52;" x="86.718409" xlink:href="#m3ccd23bcb4" y="218.832727"/>
     <use style="fill:#c44e52;" x="118.985227" xlink:href="#m3ccd23bcb4" y="274.083019"/>
     <use style="fill:#c44e52;" x="151.252045" xlink:href="#m3ccd23bcb4" y="293.543696"/>
     <use style="fill:#c44e52;" x="183.518864" xlink:href="#m3ccd23bcb4" y="293.581818"/>
     <use style="fill:#c44e52;" x="215.785682" xlink:href="#m3ccd23bcb4" y="293.581818"/>
     <use style="fill:#c44e52;" x="248.0525" xlink:href="#m3ccd23bcb4" y="293.581818"/>
     <use style="fill:#c44e52;" x="280.319318" xlink:href="#m3ccd23bcb4" y="293.581818"/>
     <use style="fill:#c44e52;" x="312.586136" xlink:href="#m3ccd23bcb4" y="293.581818"/>
     <use style="fill:#c44e52;" x="344.852955" xlink:href="#m3ccd23bcb4" y="293.581818"/>
     <use style="fill:#c44e52;" x="377.119773" xlink:href="#m3ccd23bcb4" y="293.581818"/>
     <use style="fill:#c44e52;" x="409.386591" xlink:href="#m3ccd23bcb4" y="293.581818"/>
    </g>
   </g>
   <g id="line2d_26">
    <path clip-path="url(#pf08b9ea810)" d="M 86.718409 193.916364 
L 118.985227 232.159244 
L 151.252045 283.605306 
L 183.518864 293.57833 
L 215.785682 293.581818 
L 248.0525 293.581818 
L 280.319318 293.581818 
L 312.586136 293.581818 
L 344.852955 293.581818 
L 377.119773 293.581818 
L 409.386591 293.581818 
" style="fill:none;stroke:#8172b2;stroke-linecap:round;stroke-width:2;"/>
    <defs>
     <path d="M 0 1.75 
C 0.464105 1.75 0.909265 1.565609 1.237437 1.237437 
C 1.565609 0.909265 1.75 0.464105 1.75 0 
C 1.75 -0.464105 1.565609 -0.909265 1.237437 -1.237437 
C 0.909265 -1.565609 0.464105 -1.75 0 -1.75 
C -0.464105 -1.75 -0.909265 -1.565609 -1.237437 -1.237437 
C -1.565609 -0.909265 -1.75 -0.464105 -1.75 0 
C -1.75 0.464105 -1.565609 0.909265 -1.237437 1.237437 
C -0.909265 1.565609 -0.464105 1.75 0 1.75 
z
" id="mf38fbc5d87"/>
    </defs>
    <g clip-path="url(#pf08b9ea810)">
     <use style="fill:#8172b2;" x="86.718409" xlink:href="#mf38fbc5d87" y="193.916364"/>
     <use style="fill:#8172b2;" x="118.985227" xlink:href="#mf38fbc5d87" y="232.159244"/>
     <use style="fill:#8172b2;" x="151.252045" xlink:href="#mf38fbc5d87" y="283.605306"/>
     <use style="fill:#8172b2;" x="183.518864" xlink:href="#mf38fbc5d87" y="293.57833"/>
     <use style="fill:#8172b2;" x="215.785682" xlink:href="#mf38fbc5d87" y="293.581818"/>
     <use style="fill:#8172b2;" x="248.0525" xlink:href="#mf38fbc5d87" y="293.581818"/>
     <use style="fill:#8172b2;" x="280.319318" xlink:href="#mf38fbc5d87" y="293.581818"/>
     <use style="fill:#8172b2;" x="312.586136" xlink:href="#mf38fbc5d87" y="293.581818"/>
     <use style="fill:#8172b2;" x="344.852955" xlink:href="#mf38fbc5d87" y="293.581818"/>
     <use style="fill:#8172b2;" x="377.119773" xlink:href="#mf38fbc5d87" y="293.581818"/>
     <use style="fill:#8172b2;" x="409.386591" xlink:href="#mf38fbc5d87" y="293.581818"/>
    </g>
   </g>
   <g id="line2d_27">
    <path clip-path="url(#pf08b9ea810)" d="M 86.718409 169 
L 118.985227 168.941197 
L 151.252045 168.721435 
L 183.518864 168.148857 
L 215.785682 166.84 
L 248.0525 163.88492 
L 280.319318 157.204344 
L 312.586136 141.889252 
L 344.852955 109.449143 
L 377.119773 61.437802 
L 409.386591 44.46951 
" style="fill:none;stroke:#ccb974;stroke-linecap:round;stroke-width:2;"/>
    <defs>
     <path d="M 0 1.75 
C 0.464105 1.75 0.909265 1.565609 1.237437 1.237437 
C 1.565609 0.909265 1.75 0.464105 1.75 0 
C 1.75 -0.464105 1.565609 -0.909265 1.237437 -1.237437 
C 0.909265 -1.565609 0.464105 -1.75 0 -1.75 
C -0.464105 -1.75 -0.909265 -1.565609 -1.237437 -1.237437 
C -1.565609 -0.909265 -1.75 -0.464105 -1.75 0 
C -1.75 0.464105 -1.565609 0.909265 -1.237437 1.237437 
C -0.909265 1.565609 -0.464105 1.75 0 1.75 
z
" id="m3f877e2bf9"/>
    </defs>
    <g clip-path="url(#pf08b9ea810)">
     <use style="fill:#ccb974;" x="86.718409" xlink:href="#m3f877e2bf9" y="169"/>
     <use style="fill:#ccb974;" x="118.985227" xlink:href="#m3f877e2bf9" y="168.941197"/>
     <use style="fill:#ccb974;" x="151.252045" xlink:href="#m3f877e2bf9" y="168.721435"/>
     <use style="fill:#ccb974;" x="183.518864" xlink:href="#m3f877e2bf9" y="168.148857"/>
     <use style="fill:#ccb974;" x="215.785682" xlink:href="#m3f877e2bf9" y="166.84"/>
     <use style="fill:#ccb974;" x="248.0525" xlink:href="#m3f877e2bf9" y="163.88492"/>
     <use style="fill:#ccb974;" x="280.319318" xlink:href="#m3f877e2bf9" y="157.204344"/>
     <use style="fill:#ccb974;" x="312.586136" xlink:href="#m3f877e2bf9" y="141.889252"/>
     <use style="fill:#ccb974;" x="344.852955" xlink:href="#m3f877e2bf9" y="109.449143"/>
     <use style="fill:#ccb974;" x="377.119773" xlink:href="#m3f877e2bf9" y="61.437802"/>
     <use style="fill:#ccb974;" x="409.386591" xlink:href="#m3f877e2bf9" y="44.46951"/>
    </g>
   </g>
   <g id="line2d_28">
    <path clip-path="url(#pf08b9ea810)" d="M 86.718409 144.083636 
L 118.985227 105.966583 
L 151.252045 54.432068 
L 183.518864 44.419428 
L 215.785682 44.418182 
L 248.0525 44.418182 
L 280.319318 44.418182 
L 312.586136 44.418182 
L 344.852955 44.418182 
L 377.119773 44.418182 
L 409.386591 44.418182 
" style="fill:none;stroke:#64b5cd;stroke-linecap:round;stroke-width:2;"/>
    <defs>
     <path d="M 0 1.75 
C 0.464105 1.75 0.909265 1.565609 1.237437 1.237437 
C 1.565609 0.909265 1.75 0.464105 1.75 0 
C 1.75 -0.464105 1.565609 -0.909265 1.237437 -1.237437 
C 0.909265 -1.565609 0.464105 -1.75 0 -1.75 
C -0.464105 -1.75 -0.909265 -1.565609 -1.237437 -1.237437 
C -1.565609 -0.909265 -1.75 -0.464105 -1.75 0 
C -1.75 0.464105 -1.565609 0.909265 -1.237437 1.237437 
C -0.909265 1.565609 -0.464105 1.75 0 1.75 
z
" id="mc48d534466"/>
    </defs>
    <g clip-path="url(#pf08b9ea810)">
     <use style="fill:#64b5cd;" x="86.718409" xlink:href="#mc48d534466" y="144.083636"/>
     <use style="fill:#64b5cd;" x="118.985227" xlink:href="#mc48d534466" y="105.966583"/>
     <use style="fill:#64b5cd;" x="151.252045" xlink:href="#mc48d534466" y="54.432068"/>
     <use style="fill:#64b5cd;" x="183.518864" xlink:href="#mc48d534466" y="44.419428"/>
     <use style="fill:#64b5cd;" x="215.785682" xlink:href="#mc48d534466" y="44.418182"/>
     <use style="fill:#64b5cd;" x="248.0525" xlink:href="#mc48d534466" y="44.418182"/>
     <use style="fill:#64b5cd;" x="280.319318" xlink:href="#mc48d534466" y="44.418182"/>
     <use style="fill:#64b5cd;" x="312.586136" xlink:href="#mc48d534466" y="44.418182"/>
     <use style="fill:#64b5cd;" x="344.852955" xlink:href="#mc48d534466" y="44.418182"/>
     <use style="fill:#64b5cd;" x="377.119773" xlink:href="#mc48d534466" y="44.418182"/>
     <use style="fill:#64b5cd;" x="409.386591" xlink:href="#mc48d534466" y="44.418182"/>
    </g>
   </g>
   <g id="line2d_29">
    <path clip-path="url(#pf08b9ea810)" d="M 86.718409 119.167273 
L 118.985227 63.924206 
L 151.252045 44.461287 
L 183.518864 44.418182 
L 215.785682 44.418182 
L 248.0525 44.418182 
L 280.319318 44.418182 
L 312.586136 44.418182 
L 344.852955 44.418182 
L 377.119773 44.418182 
L 409.386591 44.418182 
" style="fill:none;stroke:#4c72b0;stroke-linecap:round;stroke-width:2;"/>
    <g clip-path="url(#pf08b9ea810)">
     <use style="fill:#4c72b0;" x="86.718409" xlink:href="#mf2db09fdf8" y="119.167273"/>
     <use style="fill:#4c72b0;" x="118.985227" xlink:href="#mf2db09fdf8" y="63.924206"/>
     <use style="fill:#4c72b0;" x="151.252045" xlink:href="#mf2db09fdf8" y="44.461287"/>
     <use style="fill:#4c72b0;" x="183.518864" xlink:href="#mf2db09fdf8" y="44.418182"/>
     <use style="fill:#4c72b0;" x="215.785682" xlink:href="#mf2db09fdf8" y="44.418182"/>
     <use style="fill:#4c72b0;" x="248.0525" xlink:href="#mf2db09fdf8" y="44.418182"/>
     <use style="fill:#4c72b0;" x="280.319318" xlink:href="#mf2db09fdf8" y="44.418182"/>
     <use style="fill:#4c72b0;" x="312.586136" xlink:href="#mf2db09fdf8" y="44.418182"/>
     <use style="fill:#4c72b0;" x="344.852955" xlink:href="#mf2db09fdf8" y="44.418182"/>
     <use style="fill:#4c72b0;" x="377.119773" xlink:href="#mf2db09fdf8" y="44.418182"/>
     <use style="fill:#4c72b0;" x="409.386591" xlink:href="#mf2db09fdf8" y="44.418182"/>
    </g>
   </g>
   <g id="line2d_30">
    <path clip-path="url(#pf08b9ea810)" d="M 86.718409 94.250909 
L 118.985227 47.349841 
L 151.252045 44.418182 
L 183.518864 44.418182 
L 215.785682 44.418182 
L 248.0525 44.418182 
L 280.319318 44.418182 
L 312.586136 44.418182 
L 344.852955 44.418182 
L 377.119773 44.418182 
L 409.386591 44.418182 
" style="fill:none;stroke:#55a868;stroke-linecap:round;stroke-width:2;"/>
    <g clip-path="url(#pf08b9ea810)">
     <use style="fill:#55a868;" x="86.718409" xlink:href="#m1a60d6c462" y="94.250909"/>
     <use style="fill:#55a868;" x="118.985227" xlink:href="#m1a60d6c462" y="47.349841"/>
     <use style="fill:#55a868;" x="151.252045" xlink:href="#m1a60d6c462" y="44.418182"/>
     <use style="fill:#55a868;" x="183.518864" xlink:href="#m1a60d6c462" y="44.418182"/>
     <use style="fill:#55a868;" x="215.785682" xlink:href="#m1a60d6c462" y="44.418182"/>
     <use style="fill:#55a868;" x="248.0525" xlink:href="#m1a60d6c462" y="44.418182"/>
     <use style="fill:#55a868;" x="280.319318" xlink:href="#m1a60d6c462" y="44.418182"/>
     <use style="fill:#55a868;" x="312.586136" xlink:href="#m1a60d6c462" y="44.418182"/>
     <use style="fill:#55a868;" x="344.852955" xlink:href="#m1a60d6c462" y="44.418182"/>
     <use style="fill:#55a868;" x="377.119773" xlink:href="#m1a60d6c462" y="44.418182"/>
     <use style="fill:#55a868;" x="409.386591" xlink:href="#m1a60d6c462" y="44.418182"/>
    </g>
   </g>
   <g id="line2d_31">
    <path clip-path="url(#pf08b9ea810)" d="M 86.718409 69.334545 
L 118.985227 44.485207 
L 151.252045 44.418182 
L 183.518864 44.418182 
L 215.785682 44.418182 
L 248.0525 44.418182 
L 280.319318 44.418182 
L 312.586136 44.418182 
L 344.852955 44.418182 
L 377.119773 44.418182 
L 409.386591 44.418182 
" style="fill:none;stroke:#c44e52;stroke-linecap:round;stroke-width:2;"/>
    <g clip-path="url(#pf08b9ea810)">
     <use style="fill:#c44e52;" x="86.718409" xlink:href="#m3ccd23bcb4" y="69.334545"/>
     <use style="fill:#c44e52;" x="118.985227" xlink:href="#m3ccd23bcb4" y="44.485207"/>
     <use style="fill:#c44e52;" x="151.252045" xlink:href="#m3ccd23bcb4" y="44.418182"/>
     <use style="fill:#c44e52;" x="183.518864" xlink:href="#m3ccd23bcb4" y="44.418182"/>
     <use style="fill:#c44e52;" x="215.785682" xlink:href="#m3ccd23bcb4" y="44.418182"/>
     <use style="fill:#c44e52;" x="248.0525" xlink:href="#m3ccd23bcb4" y="44.418182"/>
     <use style="fill:#c44e52;" x="280.319318" xlink:href="#m3ccd23bcb4" y="44.418182"/>
     <use style="fill:#c44e52;" x="312.586136" xlink:href="#m3ccd23bcb4" y="44.418182"/>
     <use style="fill:#c44e52;" x="344.852955" xlink:href="#m3ccd23bcb4" y="44.418182"/>
     <use style="fill:#c44e52;" x="377.119773" xlink:href="#m3ccd23bcb4" y="44.418182"/>
     <use style="fill:#c44e52;" x="409.386591" xlink:href="#m3ccd23bcb4" y="44.418182"/>
    </g>
   </g>
   <g id="patch_3">
    <path d="M 70.585 306.04 
L 70.585 31.96 
" style="fill:none;"/>
   </g>
   <g id="patch_4">
    <path d="M 425.52 306.04 
L 425.52 31.96 
" style="fill:none;"/>
   </g>
   <g id="patch_5">
    <path d="M 70.585 306.04 
L 425.52 306.04 
" style="fill:none;"/>
   </g>
   <g id="patch_6">
    <path d="M 70.585 31.96 
L 425.52 31.96 
" style="fill:none;"/>
   </g>
   <g id="text_14">
    <!-- $k=10$ -->
    <defs>
     <path d="M 18.3125 75.984375 
L 27.296875 75.984375 
L 18.703125 31.6875 
L 49.515625 54.6875 
L 61.1875 54.6875 
L 26.8125 28.515625 
L 51.90625 0 
L 41.015625 0 
L 17.671875 26.703125 
L 12.5 0 
L 3.515625 0 
z
" id="DejaVuSans-Oblique-6b"/>
     <path d="M 10.59375 45.40625 
L 73.1875 45.40625 
L 73.1875 37.203125 
L 10.59375 37.203125 
z
M 10.59375 25.484375 
L 73.1875 25.484375 
L 73.1875 17.1875 
L 10.59375 17.1875 
z
" id="DejaVuSans-3d"/>
     <path d="M 12.40625 8.296875 
L 28.515625 8.296875 
L 28.515625 63.921875 
L 10.984375 60.40625 
L 10.984375 69.390625 
L 28.421875 72.90625 
L 38.28125 72.90625 
L 38.28125 8.296875 
L 54.390625 8.296875 
L 54.390625 0 
L 12.40625 0 
z
" id="DejaVuSans-31"/>
     <path d="M 31.78125 66.40625 
Q 24.171875 66.40625 20.328125 58.90625 
Q 16.5 51.421875 16.5 36.375 
Q 16.5 21.390625 20.328125 13.890625 
Q 24.171875 6.390625 31.78125 6.390625 
Q 39.453125 6.390625 43.28125 13.890625 
Q 47.125 21.390625 47.125 36.375 
Q 47.125 51.421875 43.28125 58.90625 
Q 39.453125 66.40625 31.78125 66.40625 
z
M 31.78125 74.21875 
Q 44.046875 74.21875 50.515625 64.515625 
Q 56.984375 54.828125 56.984375 36.375 
Q 56.984375 17.96875 50.515625 8.265625 
Q 44.046875 -1.421875 31.78125 -1.421875 
Q 19.53125 -1.421875 13.0625 8.265625 
Q 6.59375 17.96875 6.59375 36.375 
Q 6.59375 54.828125 13.0625 64.515625 
Q 19.53125 74.21875 31.78125 74.21875 
z
" id="DejaVuSans-30"/>
    </defs>
    <g style="fill:#262626;" transform="translate(223.4125 25.96)scale(0.16 -0.16)">
     <use transform="translate(0 0.015625)" xlink:href="#DejaVuSans-Oblique-6b"/>
     <use transform="translate(77.392578 0.015625)" xlink:href="#DejaVuSans-3d"/>
     <use transform="translate(180.664062 0.015625)" xlink:href="#DejaVuSans-31"/>
     <use transform="translate(244.287109 0.015625)" xlink:href="#DejaVuSans-30"/>
    </g>
   </g>
  </g>
  <g id="axes_2">
   <g id="patch_7">
    <path d="M 496.105 306.04 
L 851.04 306.04 
L 851.04 31.96 
L 496.105 31.96 
z
" style="fill:#eaeaf2;"/>
   </g>
   <g id="matplotlib.axis_3">
    <g id="xtick_7">
     <g id="line2d_32">
      <path clip-path="url(#p0cf5f84da4)" d="M 512.238409 306.04 
L 512.238409 31.96 
" style="fill:none;stroke:#ffffff;stroke-linecap:round;"/>
     </g>
     <g id="line2d_33"/>
     <g id="text_15">
      <!-- 0 -->
      <g style="fill:#262626;" transform="translate(507.789659 324.635)scale(0.16 -0.16)">
       <use xlink:href="#LiberationSans-30"/>
      </g>
     </g>
    </g>
    <g id="xtick_8">
     <g id="line2d_34">
      <path clip-path="url(#p0cf5f84da4)" d="M 576.772045 306.04 
L 576.772045 31.96 
" style="fill:none;stroke:#ffffff;stroke-linecap:round;"/>
     </g>
     <g id="line2d_35"/>
     <g id="text_16">
      <!-- 2 -->
      <g style="fill:#262626;" transform="translate(572.323295 324.635)scale(0.16 -0.16)">
       <use xlink:href="#LiberationSans-32"/>
      </g>
     </g>
    </g>
    <g id="xtick_9">
     <g id="line2d_36">
      <path clip-path="url(#p0cf5f84da4)" d="M 641.305682 306.04 
L 641.305682 31.96 
" style="fill:none;stroke:#ffffff;stroke-linecap:round;"/>
     </g>
     <g id="line2d_37"/>
     <g id="text_17">
      <!-- 4 -->
      <g style="fill:#262626;" transform="translate(636.856932 324.635)scale(0.16 -0.16)">
       <use xlink:href="#LiberationSans-34"/>
      </g>
     </g>
    </g>
    <g id="xtick_10">
     <g id="line2d_38">
      <path clip-path="url(#p0cf5f84da4)" d="M 705.839318 306.04 
L 705.839318 31.96 
" style="fill:none;stroke:#ffffff;stroke-linecap:round;"/>
     </g>
     <g id="line2d_39"/>
     <g id="text_18">
      <!-- 6 -->
      <g style="fill:#262626;" transform="translate(701.390568 324.635)scale(0.16 -0.16)">
       <use xlink:href="#LiberationSans-36"/>
      </g>
     </g>
    </g>
    <g id="xtick_11">
     <g id="line2d_40">
      <path clip-path="url(#p0cf5f84da4)" d="M 770.372955 306.04 
L 770.372955 31.96 
" style="fill:none;stroke:#ffffff;stroke-linecap:round;"/>
     </g>
     <g id="line2d_41"/>
     <g id="text_19">
      <!-- 8 -->
      <g style="fill:#262626;" transform="translate(765.924205 324.635)scale(0.16 -0.16)">
       <use xlink:href="#LiberationSans-38"/>
      </g>
     </g>
    </g>
    <g id="xtick_12">
     <g id="line2d_42">
      <path clip-path="url(#p0cf5f84da4)" d="M 834.906591 306.04 
L 834.906591 31.96 
" style="fill:none;stroke:#ffffff;stroke-linecap:round;"/>
     </g>
     <g id="line2d_43"/>
     <g id="text_20">
      <!-- 10 -->
      <g style="fill:#262626;" transform="translate(826.009091 324.635)scale(0.16 -0.16)">
       <use xlink:href="#LiberationSans-31"/>
       <use x="55.615234" xlink:href="#LiberationSans-30"/>
      </g>
     </g>
    </g>
    <g id="text_21">
     <!-- Iteration -->
     <g style="fill:#262626;" transform="translate(644.66875 343.55)scale(0.16 -0.16)">
      <use xlink:href="#LiberationSans-49"/>
      <use x="27.783203" xlink:href="#LiberationSans-74"/>
      <use x="55.566406" xlink:href="#LiberationSans-65"/>
      <use x="111.181641" xlink:href="#LiberationSans-72"/>
      <use x="144.482422" xlink:href="#LiberationSans-61"/>
      <use x="200.097656" xlink:href="#LiberationSans-74"/>
      <use x="227.880859" xlink:href="#LiberationSans-69"/>
      <use x="250.097656" xlink:href="#LiberationSans-6f"/>
      <use x="305.712891" xlink:href="#LiberationSans-6e"/>
     </g>
    </g>
   </g>
   <g id="matplotlib.axis_4">
    <g id="ytick_6">
     <g id="line2d_44">
      <path clip-path="url(#p0cf5f84da4)" d="M 496.105 293.581818 
L 851.04 293.581818 
" style="fill:none;stroke:#ffffff;stroke-linecap:round;"/>
     </g>
     <g id="line2d_45"/>
     <g id="text_22">
      <!-- −1.0 -->
      <g style="fill:#262626;" transform="translate(457.52 299.379318)scale(0.16 -0.16)">
       <use xlink:href="#LiberationSans-2212"/>
       <use x="58.398438" xlink:href="#LiberationSans-31"/>
       <use x="114.013672" xlink:href="#LiberationSans-2e"/>
       <use x="141.796875" xlink:href="#LiberationSans-30"/>
      </g>
     </g>
    </g>
    <g id="ytick_7">
     <g id="line2d_46">
      <path clip-path="url(#p0cf5f84da4)" d="M 496.105 231.290909 
L 851.04 231.290909 
" style="fill:none;stroke:#ffffff;stroke-linecap:round;"/>
     </g>
     <g id="line2d_47"/>
     <g id="text_23">
      <!-- −0.5 -->
      <g style="fill:#262626;" transform="translate(457.52 237.088409)scale(0.16 -0.16)">
       <use xlink:href="#LiberationSans-2212"/>
       <use x="58.398438" xlink:href="#LiberationSans-30"/>
       <use x="114.013672" xlink:href="#LiberationSans-2e"/>
       <use x="141.796875" xlink:href="#LiberationSans-35"/>
      </g>
     </g>
    </g>
    <g id="ytick_8">
     <g id="line2d_48">
      <path clip-path="url(#p0cf5f84da4)" d="M 496.105 169 
L 851.04 169 
" style="fill:none;stroke:#ffffff;stroke-linecap:round;"/>
     </g>
     <g id="line2d_49"/>
     <g id="text_24">
      <!-- 0.0 -->
      <g style="fill:#262626;" transform="translate(466.865 174.7975)scale(0.16 -0.16)">
       <use xlink:href="#LiberationSans-30"/>
       <use x="55.615234" xlink:href="#LiberationSans-2e"/>
       <use x="83.398438" xlink:href="#LiberationSans-30"/>
      </g>
     </g>
    </g>
    <g id="ytick_9">
     <g id="line2d_50">
      <path clip-path="url(#p0cf5f84da4)" d="M 496.105 106.709091 
L 851.04 106.709091 
" style="fill:none;stroke:#ffffff;stroke-linecap:round;"/>
     </g>
     <g id="line2d_51"/>
     <g id="text_25">
      <!-- 0.5 -->
      <g style="fill:#262626;" transform="translate(466.865 112.506591)scale(0.16 -0.16)">
       <use xlink:href="#LiberationSans-30"/>
       <use x="55.615234" xlink:href="#LiberationSans-2e"/>
       <use x="83.398438" xlink:href="#LiberationSans-35"/>
      </g>
     </g>
    </g>
    <g id="ytick_10">
     <g id="line2d_52">
      <path clip-path="url(#p0cf5f84da4)" d="M 496.105 44.418182 
L 851.04 44.418182 
" style="fill:none;stroke:#ffffff;stroke-linecap:round;"/>
     </g>
     <g id="line2d_53"/>
     <g id="text_26">
      <!-- 1.0 -->
      <g style="fill:#262626;" transform="translate(466.865 50.215682)scale(0.16 -0.16)">
       <use xlink:href="#LiberationSans-31"/>
       <use x="55.615234" xlink:href="#LiberationSans-2e"/>
       <use x="83.398438" xlink:href="#LiberationSans-30"/>
      </g>
     </g>
    </g>
    <g id="text_27">
     <!-- Average State -->
     <g style="fill:#262626;" transform="translate(450.2 219.695)rotate(-90)scale(0.16 -0.16)">
      <use xlink:href="#LiberationSans-41"/>
      <use x="66.683594" xlink:href="#LiberationSans-76"/>
      <use x="116.683594" xlink:href="#LiberationSans-65"/>
      <use x="172.298828" xlink:href="#LiberationSans-72"/>
      <use x="205.599609" xlink:href="#LiberationSans-61"/>
      <use x="261.214844" xlink:href="#LiberationSans-67"/>
      <use x="316.830078" xlink:href="#LiberationSans-65"/>
      <use x="372.445312" xlink:href="#LiberationSans-20"/>
      <use x="400.228516" xlink:href="#LiberationSans-53"/>
      <use x="466.927734" xlink:href="#LiberationSans-74"/>
      <use x="494.710938" xlink:href="#LiberationSans-61"/>
      <use x="550.326172" xlink:href="#LiberationSans-74"/>
      <use x="578.109375" xlink:href="#LiberationSans-65"/>
     </g>
    </g>
   </g>
   <g id="line2d_54">
    <path clip-path="url(#p0cf5f84da4)" d="M 512.238409 268.665455 
L 544.505227 293.581818 
L 576.772045 293.581818 
L 609.038864 293.581818 
L 641.305682 293.581818 
L 673.5725 293.581818 
L 705.839318 293.581818 
L 738.106136 293.581818 
L 770.372955 293.581818 
L 802.639773 293.581818 
L 834.906591 293.581818 
" style="fill:none;stroke:#4c72b0;stroke-linecap:round;stroke-width:2;"/>
    <g clip-path="url(#p0cf5f84da4)">
     <use style="fill:#4c72b0;" x="512.238409" xlink:href="#mf2db09fdf8" y="268.665455"/>
     <use style="fill:#4c72b0;" x="544.505227" xlink:href="#mf2db09fdf8" y="293.581818"/>
     <use style="fill:#4c72b0;" x="576.772045" xlink:href="#mf2db09fdf8" y="293.581818"/>
     <use style="fill:#4c72b0;" x="609.038864" xlink:href="#mf2db09fdf8" y="293.581818"/>
     <use style="fill:#4c72b0;" x="641.305682" xlink:href="#mf2db09fdf8" y="293.581818"/>
     <use style="fill:#4c72b0;" x="673.5725" xlink:href="#mf2db09fdf8" y="293.581818"/>
     <use style="fill:#4c72b0;" x="705.839318" xlink:href="#mf2db09fdf8" y="293.581818"/>
     <use style="fill:#4c72b0;" x="738.106136" xlink:href="#mf2db09fdf8" y="293.581818"/>
     <use style="fill:#4c72b0;" x="770.372955" xlink:href="#mf2db09fdf8" y="293.581818"/>
     <use style="fill:#4c72b0;" x="802.639773" xlink:href="#mf2db09fdf8" y="293.581818"/>
     <use style="fill:#4c72b0;" x="834.906591" xlink:href="#mf2db09fdf8" y="293.581818"/>
    </g>
   </g>
   <g id="line2d_55">
    <path clip-path="url(#p0cf5f84da4)" d="M 512.238409 243.749091 
L 544.505227 293.581818 
L 576.772045 293.581818 
L 609.038864 293.581818 
L 641.305682 293.581818 
L 673.5725 293.581818 
L 705.839318 293.581818 
L 738.106136 293.581818 
L 770.372955 293.581818 
L 802.639773 293.581818 
L 834.906591 293.581818 
" style="fill:none;stroke:#55a868;stroke-linecap:round;stroke-width:2;"/>
    <g clip-path="url(#p0cf5f84da4)">
     <use style="fill:#55a868;" x="512.238409" xlink:href="#m1a60d6c462" y="243.749091"/>
     <use style="fill:#55a868;" x="544.505227" xlink:href="#m1a60d6c462" y="293.581818"/>
     <use style="fill:#55a868;" x="576.772045" xlink:href="#m1a60d6c462" y="293.581818"/>
     <use style="fill:#55a868;" x="609.038864" xlink:href="#m1a60d6c462" y="293.581818"/>
     <use style="fill:#55a868;" x="641.305682" xlink:href="#m1a60d6c462" y="293.581818"/>
     <use style="fill:#55a868;" x="673.5725" xlink:href="#m1a60d6c462" y="293.581818"/>
     <use style="fill:#55a868;" x="705.839318" xlink:href="#m1a60d6c462" y="293.581818"/>
     <use style="fill:#55a868;" x="738.106136" xlink:href="#m1a60d6c462" y="293.581818"/>
     <use style="fill:#55a868;" x="770.372955" xlink:href="#m1a60d6c462" y="293.581818"/>
     <use style="fill:#55a868;" x="802.639773" xlink:href="#m1a60d6c462" y="293.581818"/>
     <use style="fill:#55a868;" x="834.906591" xlink:href="#m1a60d6c462" y="293.581818"/>
    </g>
   </g>
   <g id="line2d_56">
    <path clip-path="url(#p0cf5f84da4)" d="M 512.238409 218.832727 
L 544.505227 293.579576 
L 576.772045 293.581818 
L 609.038864 293.581818 
L 641.305682 293.581818 
L 673.5725 293.581818 
L 705.839318 293.581818 
L 738.106136 293.581818 
L 770.372955 293.581818 
L 802.639773 293.581818 
L 834.906591 293.581818 
" style="fill:none;stroke:#c44e52;stroke-linecap:round;stroke-width:2;"/>
    <g clip-path="url(#p0cf5f84da4)">
     <use style="fill:#c44e52;" x="512.238409" xlink:href="#m3ccd23bcb4" y="218.832727"/>
     <use style="fill:#c44e52;" x="544.505227" xlink:href="#m3ccd23bcb4" y="293.579576"/>
     <use style="fill:#c44e52;" x="576.772045" xlink:href="#m3ccd23bcb4" y="293.581818"/>
     <use style="fill:#c44e52;" x="609.038864" xlink:href="#m3ccd23bcb4" y="293.581818"/>
     <use style="fill:#c44e52;" x="641.305682" xlink:href="#m3ccd23bcb4" y="293.581818"/>
     <use style="fill:#c44e52;" x="673.5725" xlink:href="#m3ccd23bcb4" y="293.581818"/>
     <use style="fill:#c44e52;" x="705.839318" xlink:href="#m3ccd23bcb4" y="293.581818"/>
     <use style="fill:#c44e52;" x="738.106136" xlink:href="#m3ccd23bcb4" y="293.581818"/>
     <use style="fill:#c44e52;" x="770.372955" xlink:href="#m3ccd23bcb4" y="293.581818"/>
     <use style="fill:#c44e52;" x="802.639773" xlink:href="#m3ccd23bcb4" y="293.581818"/>
     <use style="fill:#c44e52;" x="834.906591" xlink:href="#m3ccd23bcb4" y="293.581818"/>
    </g>
   </g>
   <g id="line2d_57">
    <path clip-path="url(#p0cf5f84da4)" d="M 512.238409 193.916364 
L 544.505227 288.432602 
L 576.772045 293.581818 
L 609.038864 293.581818 
L 641.305682 293.581818 
L 673.5725 293.581818 
L 705.839318 293.581818 
L 738.106136 293.581818 
L 770.372955 293.581818 
L 802.639773 293.581818 
L 834.906591 293.581818 
" style="fill:none;stroke:#8172b2;stroke-linecap:round;stroke-width:2;"/>
    <g clip-path="url(#p0cf5f84da4)">
     <use style="fill:#8172b2;" x="512.238409" xlink:href="#mf38fbc5d87" y="193.916364"/>
     <use style="fill:#8172b2;" x="544.505227" xlink:href="#mf38fbc5d87" y="288.432602"/>
     <use style="fill:#8172b2;" x="576.772045" xlink:href="#mf38fbc5d87" y="293.581818"/>
     <use style="fill:#8172b2;" x="609.038864" xlink:href="#mf38fbc5d87" y="293.581818"/>
     <use style="fill:#8172b2;" x="641.305682" xlink:href="#mf38fbc5d87" y="293.581818"/>
     <use style="fill:#8172b2;" x="673.5725" xlink:href="#mf38fbc5d87" y="293.581818"/>
     <use style="fill:#8172b2;" x="705.839318" xlink:href="#mf38fbc5d87" y="293.581818"/>
     <use style="fill:#8172b2;" x="738.106136" xlink:href="#mf38fbc5d87" y="293.581818"/>
     <use style="fill:#8172b2;" x="770.372955" xlink:href="#mf38fbc5d87" y="293.581818"/>
     <use style="fill:#8172b2;" x="802.639773" xlink:href="#mf38fbc5d87" y="293.581818"/>
     <use style="fill:#8172b2;" x="834.906591" xlink:href="#mf38fbc5d87" y="293.581818"/>
    </g>
   </g>
   <g id="line2d_58">
    <path clip-path="url(#p0cf5f84da4)" d="M 512.238409 169 
L 544.505227 168.991279 
L 576.772045 169.235958 
L 609.038864 170.983343 
L 641.305682 184.496982 
L 673.5725 266.696813 
L 705.839318 293.581818 
L 738.106136 293.581818 
L 770.372955 293.581818 
L 802.639773 293.581818 
L 834.906591 293.581818 
" style="fill:none;stroke:#ccb974;stroke-linecap:round;stroke-width:2;"/>
    <g clip-path="url(#p0cf5f84da4)">
     <use style="fill:#ccb974;" x="512.238409" xlink:href="#m3f877e2bf9" y="169"/>
     <use style="fill:#ccb974;" x="544.505227" xlink:href="#m3f877e2bf9" y="168.991279"/>
     <use style="fill:#ccb974;" x="576.772045" xlink:href="#m3f877e2bf9" y="169.235958"/>
     <use style="fill:#ccb974;" x="609.038864" xlink:href="#m3f877e2bf9" y="170.983343"/>
     <use style="fill:#ccb974;" x="641.305682" xlink:href="#m3f877e2bf9" y="184.496982"/>
     <use style="fill:#ccb974;" x="673.5725" xlink:href="#m3f877e2bf9" y="266.696813"/>
     <use style="fill:#ccb974;" x="705.839318" xlink:href="#m3f877e2bf9" y="293.581818"/>
     <use style="fill:#ccb974;" x="738.106136" xlink:href="#m3f877e2bf9" y="293.581818"/>
     <use style="fill:#ccb974;" x="770.372955" xlink:href="#m3f877e2bf9" y="293.581818"/>
     <use style="fill:#ccb974;" x="802.639773" xlink:href="#m3f877e2bf9" y="293.581818"/>
     <use style="fill:#ccb974;" x="834.906591" xlink:href="#m3f877e2bf9" y="293.581818"/>
    </g>
   </g>
   <g id="line2d_59">
    <path clip-path="url(#p0cf5f84da4)" d="M 512.238409 144.083636 
L 544.505227 49.658591 
L 576.772045 44.418182 
L 609.038864 44.418182 
L 641.305682 44.418182 
L 673.5725 44.418182 
L 705.839318 44.418182 
L 738.106136 44.418182 
L 770.372955 44.418182 
L 802.639773 44.418182 
L 834.906591 44.418182 
" style="fill:none;stroke:#64b5cd;stroke-linecap:round;stroke-width:2;"/>
    <g clip-path="url(#p0cf5f84da4)">
     <use style="fill:#64b5cd;" x="512.238409" xlink:href="#mc48d534466" y="144.083636"/>
     <use style="fill:#64b5cd;" x="544.505227" xlink:href="#mc48d534466" y="49.658591"/>
     <use style="fill:#64b5cd;" x="576.772045" xlink:href="#mc48d534466" y="44.418182"/>
     <use style="fill:#64b5cd;" x="609.038864" xlink:href="#mc48d534466" y="44.418182"/>
     <use style="fill:#64b5cd;" x="641.305682" xlink:href="#mc48d534466" y="44.418182"/>
     <use style="fill:#64b5cd;" x="673.5725" xlink:href="#mc48d534466" y="44.418182"/>
     <use style="fill:#64b5cd;" x="705.839318" xlink:href="#mc48d534466" y="44.418182"/>
     <use style="fill:#64b5cd;" x="738.106136" xlink:href="#mc48d534466" y="44.418182"/>
     <use style="fill:#64b5cd;" x="770.372955" xlink:href="#mc48d534466" y="44.418182"/>
     <use style="fill:#64b5cd;" x="802.639773" xlink:href="#mc48d534466" y="44.418182"/>
     <use style="fill:#64b5cd;" x="834.906591" xlink:href="#mc48d534466" y="44.418182"/>
    </g>
   </g>
   <g id="line2d_60">
    <path clip-path="url(#p0cf5f84da4)" d="M 512.238409 119.167273 
L 544.505227 44.423414 
L 576.772045 44.418182 
L 609.038864 44.418182 
L 641.305682 44.418182 
L 673.5725 44.418182 
L 705.839318 44.418182 
L 738.106136 44.418182 
L 770.372955 44.418182 
L 802.639773 44.418182 
L 834.906591 44.418182 
" style="fill:none;stroke:#4c72b0;stroke-linecap:round;stroke-width:2;"/>
    <g clip-path="url(#p0cf5f84da4)">
     <use style="fill:#4c72b0;" x="512.238409" xlink:href="#mf2db09fdf8" y="119.167273"/>
     <use style="fill:#4c72b0;" x="544.505227" xlink:href="#mf2db09fdf8" y="44.423414"/>
     <use style="fill:#4c72b0;" x="576.772045" xlink:href="#mf2db09fdf8" y="44.418182"/>
     <use style="fill:#4c72b0;" x="609.038864" xlink:href="#mf2db09fdf8" y="44.418182"/>
     <use style="fill:#4c72b0;" x="641.305682" xlink:href="#mf2db09fdf8" y="44.418182"/>
     <use style="fill:#4c72b0;" x="673.5725" xlink:href="#mf2db09fdf8" y="44.418182"/>
     <use style="fill:#4c72b0;" x="705.839318" xlink:href="#mf2db09fdf8" y="44.418182"/>
     <use style="fill:#4c72b0;" x="738.106136" xlink:href="#mf2db09fdf8" y="44.418182"/>
     <use style="fill:#4c72b0;" x="770.372955" xlink:href="#mf2db09fdf8" y="44.418182"/>
     <use style="fill:#4c72b0;" x="802.639773" xlink:href="#mf2db09fdf8" y="44.418182"/>
     <use style="fill:#4c72b0;" x="834.906591" xlink:href="#mf2db09fdf8" y="44.418182"/>
    </g>
   </g>
   <g id="line2d_61">
    <path clip-path="url(#p0cf5f84da4)" d="M 512.238409 94.250909 
L 544.505227 44.418182 
L 576.772045 44.418182 
L 609.038864 44.418182 
L 641.305682 44.418182 
L 673.5725 44.418182 
L 705.839318 44.418182 
L 738.106136 44.418182 
L 770.372955 44.418182 
L 802.639773 44.418182 
L 834.906591 44.418182 
" style="fill:none;stroke:#55a868;stroke-linecap:round;stroke-width:2;"/>
    <g clip-path="url(#p0cf5f84da4)">
     <use style="fill:#55a868;" x="512.238409" xlink:href="#m1a60d6c462" y="94.250909"/>
     <use style="fill:#55a868;" x="544.505227" xlink:href="#m1a60d6c462" y="44.418182"/>
     <use style="fill:#55a868;" x="576.772045" xlink:href="#m1a60d6c462" y="44.418182"/>
     <use style="fill:#55a868;" x="609.038864" xlink:href="#m1a60d6c462" y="44.418182"/>
     <use style="fill:#55a868;" x="641.305682" xlink:href="#m1a60d6c462" y="44.418182"/>
     <use style="fill:#55a868;" x="673.5725" xlink:href="#m1a60d6c462" y="44.418182"/>
     <use style="fill:#55a868;" x="705.839318" xlink:href="#m1a60d6c462" y="44.418182"/>
     <use style="fill:#55a868;" x="738.106136" xlink:href="#m1a60d6c462" y="44.418182"/>
     <use style="fill:#55a868;" x="770.372955" xlink:href="#m1a60d6c462" y="44.418182"/>
     <use style="fill:#55a868;" x="802.639773" xlink:href="#m1a60d6c462" y="44.418182"/>
     <use style="fill:#55a868;" x="834.906591" xlink:href="#m1a60d6c462" y="44.418182"/>
    </g>
   </g>
   <g id="line2d_62">
    <path clip-path="url(#p0cf5f84da4)" d="M 512.238409 69.334545 
L 544.505227 44.418182 
L 576.772045 44.418182 
L 609.038864 44.418182 
L 641.305682 44.418182 
L 673.5725 44.418182 
L 705.839318 44.418182 
L 738.106136 44.418182 
L 770.372955 44.418182 
L 802.639773 44.418182 
L 834.906591 44.418182 
" style="fill:none;stroke:#c44e52;stroke-linecap:round;stroke-width:2;"/>
    <g clip-path="url(#p0cf5f84da4)">
     <use style="fill:#c44e52;" x="512.238409" xlink:href="#m3ccd23bcb4" y="69.334545"/>
     <use style="fill:#c44e52;" x="544.505227" xlink:href="#m3ccd23bcb4" y="44.418182"/>
     <use style="fill:#c44e52;" x="576.772045" xlink:href="#m3ccd23bcb4" y="44.418182"/>
     <use style="fill:#c44e52;" x="609.038864" xlink:href="#m3ccd23bcb4" y="44.418182"/>
     <use style="fill:#c44e52;" x="641.305682" xlink:href="#m3ccd23bcb4" y="44.418182"/>
     <use style="fill:#c44e52;" x="673.5725" xlink:href="#m3ccd23bcb4" y="44.418182"/>
     <use style="fill:#c44e52;" x="705.839318" xlink:href="#m3ccd23bcb4" y="44.418182"/>
     <use style="fill:#c44e52;" x="738.106136" xlink:href="#m3ccd23bcb4" y="44.418182"/>
     <use style="fill:#c44e52;" x="770.372955" xlink:href="#m3ccd23bcb4" y="44.418182"/>
     <use style="fill:#c44e52;" x="802.639773" xlink:href="#m3ccd23bcb4" y="44.418182"/>
     <use style="fill:#c44e52;" x="834.906591" xlink:href="#m3ccd23bcb4" y="44.418182"/>
    </g>
   </g>
   <g id="patch_8">
    <path d="M 496.105 306.04 
L 496.105 31.96 
" style="fill:none;"/>
   </g>
   <g id="patch_9">
    <path d="M 851.04 306.04 
L 851.04 31.96 
" style="fill:none;"/>
   </g>
   <g id="patch_10">
    <path d="M 496.105 306.04 
L 851.04 306.04 
" style="fill:none;"/>
   </g>
   <g id="patch_11">
    <path d="M 496.105 31.96 
L 851.04 31.96 
" style="fill:none;"/>
   </g>
   <g id="text_28">
    <!-- $k=100$ -->
    <g style="fill:#262626;" transform="translate(643.8125 25.96)scale(0.16 -0.16)">
     <use transform="translate(0 0.015625)" xlink:href="#DejaVuSans-Oblique-6b"/>
     <use transform="translate(77.392578 0.015625)" xlink:href="#DejaVuSans-3d"/>
     <use transform="translate(180.664062 0.015625)" xlink:href="#DejaVuSans-31"/>
     <use transform="translate(244.287109 0.015625)" xlink:href="#DejaVuSans-30"/>
     <use transform="translate(307.910156 0.015625)" xlink:href="#DejaVuSans-30"/>
    </g>
   </g>
  </g>
 </g>
 <defs>
  <clipPath id="pf08b9ea810">
   <rect height="274.08" width="354.935" x="70.585" y="31.96"/>
  </clipPath>
  <clipPath id="p0cf5f84da4">
   <rect height="274.08" width="354.935" x="496.105" y="31.96"/>
  </clipPath>
 </defs>
</svg>
